<svg width="56" height="39" viewBox="0 0 56 39" fill="none" xmlns="http://www.w3.org/2000/svg">
<path d="M28 0.361084C33.2344 0.361084 37.7808 2.1146 41.2448 5.18405C40.8376 5.12423 40.424 5.08331 40 5.08331C35.368 5.08331 31.6 8.79025 31.6 13.3472C31.6 15.0086 32.1056 16.5536 32.9664 17.8514C31.4312 17.2344 29.7568 16.8889 28 16.8889C26.2432 16.8889 24.5688 17.2344 23.0336 17.8514C23.8944 16.5544 24.4 15.0094 24.4 13.3472C24.4 8.79025 20.632 5.08331 16 5.08331C15.576 5.08331 15.1624 5.12423 14.7552 5.18405C18.2192 2.1146 22.7656 0.361084 28 0.361084Z" fill="white"/>
<path d="M49.284 13.4086C48.068 9.87006 46.1624 6.79275 43.7064 4.34034C44.9064 3.36127 48.272 1.02692 51.4624 2.59784C55.156 4.41432 55.5584 7.68683 55.596 18.0671L49.284 13.4086Z" fill="white"/>
<path d="M41.2 35.9832V29.875C41.2 26.6103 39.9592 23.6306 37.9296 21.3466C38.5936 21.5135 39.284 21.6111 40 21.6111C43.464 21.6111 46.444 19.5372 47.7264 16.5851C48.1656 18.5298 48.4 20.6045 48.4 22.7916C48.4 29.4366 46.1976 33.6803 41.2 35.9832Z" fill="white"/>
<path d="M38.8 36.8772C35.9232 37.7343 32.3512 38.1389 28 38.1389C23.6488 38.1389 20.0768 37.7343 17.2 36.8772V29.875C17.2 24.8899 20.712 20.7084 25.4256 19.5671L26.8 20.9193V24.5208L20.1344 28.8927C19.5832 29.2548 19.4336 29.9875 19.8016 30.5298C20.1696 31.0713 20.9144 31.2184 21.4656 30.8572L28 26.5718L34.5344 30.8572C34.7392 30.9918 34.9704 31.0555 35.1992 31.0555C35.5864 31.0555 35.9672 30.8714 36.1984 30.5298C36.5664 29.9875 36.4168 29.2548 35.8656 28.8927L29.2 24.5208V20.9193L30.5744 19.5671C35.288 20.7084 38.8 24.8899 38.8 29.875V36.8772Z" fill="white"/>
<path d="M14.8 35.9832C9.8024 33.6803 7.6 29.4374 7.6 22.7916C7.6 20.6052 7.8344 18.5298 8.2736 16.5851C9.556 19.5372 12.536 21.6111 16 21.6111C16.716 21.6111 17.4064 21.5135 18.0704 21.3466C16.0408 23.6306 14.8 26.6103 14.8 29.875V35.9832Z" fill="white"/>
<path d="M16 7.44442C19.3088 7.44442 22 10.092 22 13.3472C22 16.6024 19.3088 19.25 16 19.25C12.6912 19.25 10 16.6024 10 13.3472C10 10.092 12.6912 7.44442 16 7.44442Z" fill="white"/>
<path d="M0.403198 18.0671C0.440798 7.68683 0.842398 4.41432 4.5368 2.59784C7.7304 1.02613 11.0928 3.3597 12.2936 4.33956C9.8376 6.79275 7.9312 9.87006 6.7152 13.4086L0.403198 18.0671Z" fill="white"/>
<path d="M46 13.3472C46 16.6024 43.3088 19.25 40 19.25C36.6912 19.25 34 16.6024 34 13.3472C34 10.092 36.6912 7.44442 40 7.44442C43.3088 7.44442 46 10.092 46 13.3472Z" fill="white"/>
</svg>
