<svg width="301" height="223" viewBox="0 0 301 223" fill="none" xmlns="http://www.w3.org/2000/svg"><path d="M11.9192 67.2376C3.97305 67.2376.0 63.2639.0 55.3163V27.9213C0 19.9738 3.97305 16 11.9192 16H25.9899C26.9006 16 27.356 16.4554 27.356 17.3663V21.4995C27.356 22.3876 26.9006 22.8317 25.9899 22.8317H11.9192C8.52669 22.8317 6.83046 24.5282 6.83046 27.9213v27.395C6.83046 58.7094 8.52669 60.4059 11.9192 60.4059H18.7496C22.1649 60.4059 23.8839 58.698 23.9066 55.2822V46.4351C23.9294 45.5243 23.4854 45.0688 22.5747 45.0688H18.4423C17.5315 45.0688 17.0762 44.6134 17.0762 43.7025V39.6035C17.0762 38.6698 17.5315 38.2144 18.4423 38.2371L29.371 38.203C30.2817 38.203 30.7371 38.647 30.7371 39.5351L30.7029 55.2822C30.7029 63.2525 26.7185 67.2376 18.7496 67.2376H11.9192z" fill="#fff"/><path d="M49.4867 67.2376C41.5406 67.2376 37.5675 63.2639 37.5675 55.3163v-37.95C37.5675 16.4554 38.0229 16 38.9336 16H43.0319C43.9426 16 44.398 16.4554 44.398 17.3663v37.95C44.398 58.7094 46.0942 60.4059 49.4867 60.4059H56.3172C59.7324 60.4059 61.4514 58.698 61.4742 55.2822V17.3663C61.4742 16.4554 61.9295 16 62.8403 16H66.9385C67.8493 16 68.3046 16.4554 68.3046 17.3663L68.2705 55.2822C68.2705 63.2525 64.286 67.2376 56.3172 67.2376H49.4867z" fill="#fff"/><path d="M75.1351 17.3663C75.1351 16.4554 75.5905 16 76.5012 16H80.5995C81.5102 16 81.9656 16.4554 81.9656 17.3663V65.8713C81.9656 66.7822 81.5102 67.2376 80.5995 67.2376H76.5012C75.5905 67.2376 75.1351 66.7822 75.1351 65.8713V17.3663z" fill="#fff"/><path d="M107.546 16C115.515 16 119.499 19.9851 119.499 27.9554L119.533 65.8713C119.533 66.7822 119.078 67.2376 118.167 67.2376H114.069C113.158 67.2376 112.703 66.7822 112.703 65.8713V27.9554C112.68 24.5396 110.961 22.8317 107.546 22.8317H100.715C97.3227 22.8317 95.6265 24.5282 95.6265 27.9213V65.8371C95.6265 66.7708 95.1711 67.2376 94.2604 67.2376H90.1621C89.2514 67.2376 88.796 66.7708 88.796 65.8371V27.9213C88.796 19.9738 92.7691 16 100.715 16H107.546z" fill="#fff"/><path d="M138.283 67.2376C130.337 67.2376 126.364 63.2639 126.364 55.3163V27.9213C126.364 19.9738 130.337 16 138.283 16H152.319C153.23 16 153.685 16.4554 153.685 17.3663V21.4995C153.685 22.3876 153.23 22.8317 152.319 22.8317H138.283C134.89 22.8317 133.194 24.5282 133.194 27.9213V36.8366C133.194 37.7475 133.649 38.203 134.56 38.203H148.87C149.781 38.203 150.236 38.6584 150.236 39.5693V43.6683C150.236 44.5792 149.781 45.0347 148.87 45.0347H134.56C133.649 45.0119 133.194 45.4673 133.194 46.401V55.3163C133.194 58.7094 134.89 60.4059 138.283 60.4059H152.319C153.23 60.4059 153.685 60.8614 153.685 61.7723V65.9738C153.685 66.8163 153.23 67.2376 152.319 67.2376H138.283z" fill="#fff"/><path d="M161.882 67.2376C160.971 67.2376 160.516 66.7822 160.516 65.8713V27.9554C160.516 19.9851 164.5 16 172.469 16H179.3C187.269 16 191.264 19.9851 191.287 27.9554V65.8713C191.264 66.7822 190.786 67.2376 189.853 67.2376H185.789C184.878 67.2376 184.423 66.7822 184.423 65.8713V53.2327C184.423 52.3218 183.967 51.8663 183.056 51.8663H168.781C167.824 51.8663 167.335 52.3218 167.312 53.2327V65.8713C167.335 66.7822 166.914 67.2376 166.049 67.2376H161.882zM167.346 43.6683C167.346 44.5792 167.824 45.0574 168.781 45.103H183.056C183.967 45.0574 184.423 44.602 184.423 43.7366V27.9554C184.423 24.5396 182.715 22.8317 179.3 22.8317H172.469C169.054 22.8317 167.346 24.5396 167.346 27.9554V43.6683z" fill="#fff"/><path d="M19.0331 156.623C19.0331 159.174 20.3721 160.513 23.0501 160.64H52.5083C62.1364 160.704 66.9505 155.954 66.9505 146.39L66.8549 112.914C66.9824 103.414 62.2321 98.6634 52.604 98.6634H22.9545C20.404 98.6634 19.1287 99.9705 19.1287 102.585L19.0331 156.623zM86.1749 146.294C86.1111 168.738 74.8889 179.96 52.5083 179.96H22.8588C20.3083 179.96 19.0331 181.236 19.0331 183.786L19.1287 219.174C19.1287 221.725 17.8535 223 15.303 223H3.82574C1.27525 223 0 221.725.0 219.174V83.3604C0 80.8099 1.27525 79.5347 3.82574 79.5347H52.604C74.9208 79.5347 86.143 90.6931 86.2705 113.01L86.1749 146.294z" fill="#fff"/><path d="M243.795 223C221.542 223 210.416 211.873 210.416 189.62V112.914C210.416 90.6612 221.542 79.5347 243.795 79.5347H283.201C285.751 79.5347 287.026 80.8099 287.026 83.3604V94.9333C287.026 97.42 285.751 98.6634 283.201 98.6634H243.795C234.295 98.6634 229.545 103.414 229.545 112.914V189.62C229.545 199.121 234.295 203.871 243.795 203.871H262.924C272.489 203.871 277.303 199.089 277.366 189.525V164.753C277.43 162.203 276.187 160.927 273.636 160.927H262.063C259.513 160.927 258.238 159.652 258.238 157.102V145.624C258.238 143.01 259.513 141.735 262.063 141.799L292.669 141.703C295.22 141.703 296.495 142.946 296.495 145.433L296.399 189.525C296.399 211.842 285.241 223 262.924 223H243.795z" fill="#fff"/><path d="M138.588 223C116.334 223 105.208 211.873 105.208 189.62V83.3604C105.208 80.8099 106.483 79.5347 109.034 79.5347H120.511C123.061 79.5347 124.337 80.8099 124.337 83.3604V189.62C124.337 199.121 129.087 203.871 138.588 203.871H157.716C167.281 203.871 172.095 199.089 172.158 189.525V83.3604C172.158 80.8099 173.434 79.5347 175.984 79.5347H187.461C190.012 79.5347 191.287 80.8099 191.287 83.3604L191.191 189.525C191.191 211.842 180.033 223 157.716 223H138.588z" fill="#fff"/><g filter="url(#filter0_d)"><path d="M285.107 26.1474C285.107 4.96753 262.531-691414e-11 253.296-691414e-11 244.06-691414e-11 221.485 4.96753 221.485 26.1474 221.485 47.3272 235.727 64.4968 253.296 64.4968 270.864 64.4968 285.107 47.3272 285.107 26.1474z" fill="#ffebc2"/><path d="M292.765 9.48481C294.469 12.7809 292.431 17.4589 293.943 18.9696 295.454 20.4804 299.245 40.4686 290.997 32.8807 282.75 25.2929 283.339 22.7636 279.805 16.4404 276.27 10.1171 265.975 5.66886 267.434 3.79391 270.389-.00593745 275.681 1.89694 283.339 3.79391S291.06 6.18872 292.765 9.48481z" fill="#505d6e"/><path d="M213.372 9.3278C211.667 12.6239 213.705 17.3019 212.194 18.8126 210.682 20.3234 206.892 40.3116 215.139 32.7237 223.386 25.1358 222.797 22.6066 226.332 16.2833 229.866 9.96012 240.161 5.51185 238.703 3.6369 235.747-.162949 230.455 1.73993 222.797 3.6369 215.139 5.53387 215.076 6.03171 213.372 9.3278z" fill="#505d6e"/><ellipse cx="253.296" cy="49.3212" rx="25.9199" ry="17.705" fill="#515e6e"/><path d="M222.701 40.7509C224.963 43.8813 228.702 48.1961 232.129 48.1961h21.512L275.152 48.1962C278.579 48.1962 282.319 43.8814 284.58 40.7509 285.885 38.9449 290.398 38.7589 291.437 40.7509 291.566 40.9987 291.68 41.2685 291.771 41.5616 292.383 43.5148 292.329 47.8226 290.818 49.1087L289.75 50.0177C288.155 51.3746 289.028 53.5824 290.622 54.9392L291.771 55.9175C293.466 57.3595 293.092 60.036 292.122 62.1006 291.144 64.1815 286.719 64.035 284.015 62.1504 281.312 60.2658 279.973 55.7229 275.152 55.7229L253.641 55.7228H232.129C227.308 55.7228 226.085 58.4775 223.266 62.1503 220.447 65.8232 216.137 64.1815 215.159 62.1005 214.189 60.0359 213.815 57.3595 215.51 55.9175L216.659 54.9392C218.253 53.5823 219.126 51.3746 217.531 50.0177L216.463 49.1087C214.952 47.8226 214.898 43.5147 215.51 41.5616 215.602 41.2685 215.715 40.9987 215.845 40.7509 216.883 38.7589 221.396 38.9449 222.701 40.7509z" fill="#fff"/><path fill-rule="evenodd" clip-rule="evenodd" d="M256.186 34.2589C256.411 34.448 256.556 34.7428 256.556 35.0739 256.556 35.6447 256.125 36.1074 255.593 36.1074V35.0739C255.593 36.1074 255.591 36.1074 255.589 36.1074H255.584L255.574 36.1072 255.553 36.1065C255.539 36.1059 255.524 36.1049 255.508 36.1035 255.477 36.1007 255.443 36.0961 255.407 36.0891 255.334 36.075 255.253 36.0512 255.166 36.0124 254.987 35.9321 254.813 35.7993 254.667 35.607 254.384 35.2361 254.265 34.7306 254.248 34.1361 254.215 32.957 254.574 30.8607 255.892 26.969 257.222 23.0413 258.449 20.4008 259.356 18.7276 259.81 17.891 260.184 17.2962 260.45 16.9033 260.583 16.7069 260.689 16.561 260.765 16.4606 260.803 16.4104 260.834 16.3716 260.856 16.3436L260.884 16.3095 260.893 16.2984 260.897 16.2943 260.898 16.2926 260.899 16.2918C260.899 16.2914 260.899 16.2911 261.612 16.9865L260.899 16.2911C261.257 15.8688 261.866 15.8378 262.259 16.2219 262.653 16.6056 262.682 17.2586 262.325 17.6809 262.325 17.6811 262.325 17.6812 262.324 17.6813M262.325 17.6809V17.6807L262.326 17.6797V17.6788L262.316 17.6913C262.306 17.7049 262.286 17.7291 262.259 17.7647 262.205 17.8359 262.12 17.9525 262.007 18.1194 261.781 18.4533 261.443 18.989 261.021 19.7673 260.177 21.3239 258.997 23.8513 257.702 27.6753 256.395 31.5354 256.152 33.3149 256.173 34.0737 256.175 34.1517 256.18 34.2126 256.186 34.2589" fill="#515e6e"/><path d="M254.161 44.4926C261.329 44.4926 278.168 57.3977 276.859 58.806 275.55 60.2144 265.672 67.0262 259.445 67.0262H253.478 246.993C243.88 67.0262 234.836 62.2551 230.91 59.4384 227.263 56.8214 244.346 46.3232 252.463 44.6844V31.6162H254.161V44.4926z" fill="#2e3440"/><path d="M257.419 26.5575C259.323 23.7551 274.527 28.7298 277.378 31.7829 280.229 34.8361 278.408 42.1289 274.257 44.2849 271.188 45.8792 261.599 41.9353 256.811 39.7718 255.157 39.0246 254.233 37.2271 254.598 35.4564 255.2 32.541 256.227 28.3126 257.419 26.5575z" fill="#515e6e"/><path d="M257.419 26.5575C259.323 23.7551 274.527 28.7298 277.378 31.7829 280.229 34.8361 278.408 42.1289 274.257 44.2849 271.188 45.8792 261.599 41.9353 256.811 39.7718 255.157 39.0246 254.233 37.2271 254.598 35.4564 255.2 32.541 256.227 28.3126 257.419 26.5575z" fill="#515e6e"/><path d="M249.761 26.5576C247.857 23.7553 232.356 28.7299 229.505 31.783 226.654 34.8362 228.475 42.129 232.626 44.2851 235.715 45.8894 245.406 41.8852 250.163 39.7309 251.772 39.0021 252.697 37.2743 252.393 35.5387 251.881 32.6212 250.965 28.3293 249.761 26.5576z" fill="#515e6e"/><path d="M249.761 26.5576C247.857 23.7553 232.356 28.7299 229.505 31.783 226.654 34.8362 228.475 42.129 232.626 44.2851 235.715 45.8894 245.406 41.8852 250.163 39.7309 251.772 39.0021 252.697 37.2743 252.393 35.5387 251.881 32.6212 250.965 28.3293 249.761 26.5576z" fill="#515e6e"/><path fill-rule="evenodd" clip-rule="evenodd" d="M250.386 34.2589C250.16 34.448 250.015 34.7428 250.015 35.0739 250.015 35.6447 250.446 36.1074 250.978 36.1074V35.0739C250.978 36.1074 250.98 36.1074 250.983 36.1074H250.987L250.997 36.1072 251.018 36.1065C251.032 36.1059 251.047 36.1049 251.063 36.1035 251.094 36.1007 251.128 36.0961 251.164 36.0891 251.237 36.075 251.319 36.0512 251.405 36.0124 251.584 35.9321 251.758 35.7993 251.904 35.607 252.187 35.2361 252.306 34.7306 252.323 34.1361 252.356 32.957 251.997 30.8607 250.679 26.969 249.349 23.0413 248.122 20.4008 247.215 18.7276 246.761 17.891 246.388 17.2962 246.121 16.9033 245.988 16.7069 245.882 16.561 245.806 16.4606 245.768 16.4104 245.737 16.3716 245.715 16.3436L245.687 16.3095 245.678 16.2984 245.675 16.2943 245.673 16.2926V16.2918C245.672 16.2914 245.672 16.2911 244.96 16.9865L245.672 16.2911C245.314 15.8688 244.705 15.8378 244.312 16.2219 243.919 16.6056 243.89 17.2586 244.246 17.6809 244.247 17.6811 244.247 17.6812 244.247 17.6813M244.246 17.6809V17.6807L244.245 17.6797V17.6788L244.255 17.6913C244.266 17.7049 244.285 17.7291 244.312 17.7647 244.366 17.8359 244.451 17.9525 244.564 18.1194 244.79 18.4533 245.128 18.989 245.55 19.7673 246.394 21.3239 247.574 23.8513 248.869 27.6753 250.177 31.5354 250.419 33.3149 250.398 34.0737 250.396 34.1517 250.391 34.2126 250.386 34.2589" fill="#515e6e"/><path d="M260.408 38.746C260.408 35.7716 255.283 35.074 253.186 35.074 251.089 35.074 245.964 35.7716 245.964 38.746 245.964 40.1119 245.964 43.5043 247.77 42.3084 249.575 41.1124 250.701 42.3289 251.381 42.622 252.443 43.0803 251.871 42.622 253.186 42.622S253.929 43.0803 254.991 42.622C255.671 42.3289 256.797 41.1124 258.602 42.3084 260.408 43.5043 260.408 40.1119 260.408 38.746z" fill="#211d1e"/><path d="M263.933 38.1377C265.322 33.4598 270.135 33.5351 271.327 38.1377 271.574 38.8002 272.274 39.1225 272.891 38.8575 273.508 38.5925 273.809 37.8406 273.562 37.1781L273.217 36.254C271.2 30.8398 264.06 30.8398 262.042 36.254L261.698 37.1781C261.451 37.8406 261.751 38.5925 262.368 38.8575S263.686 38.8002 263.933 38.1377z" fill="#211d1e"/><path d="M235.588 38.1929C236.978 33.515 241.79 33.5903 242.982 38.1929 243.229 38.8554 243.929 39.1776 244.547 38.9126 245.164 38.6476 245.464 37.8958 245.217 37.2333L244.873 36.3092C242.855 30.895 235.715 30.895 233.697 36.3092L233.353 37.2333C233.106 37.8958 233.406 38.6476 234.024 38.9126 234.641 39.1776 235.341 38.8554 235.588 38.1929z" fill="#211d1e"/></g><defs><filter id="filter0_d" x="206" y="0" width="94.1363" height="75.0262" filterUnits="userSpaceOnUse" color-interpolation-filters="sRGB"><feFlood flood-opacity="0" result="BackgroundImageFix"/><feColorMatrix in="SourceAlpha" type="matrix" values="0 0 0 0 0 0 0 0 0 0 0 0 0 0 0 0 0 0 127 0"/><feOffset dy="4"/><feGaussianBlur stdDeviation="2"/><feColorMatrix type="matrix" values="0 0 0 0 0 0 0 0 0 0 0 0 0 0 0 0 0 0 0.25 0"/><feBlend mode="normal" in2="BackgroundImageFix" result="effect1_dropShadow"/><feBlend mode="normal" in="SourceGraphic" in2="effect1_dropShadow" result="shape"/></filter></defs></svg>