<svg width="440" height="324" viewBox="0 0 440 324" fill="none" xmlns="http://www.w3.org/2000/svg"><path d="M20.4469 93C8.81563 93 3 87.1833 3 75.55V35.45C3 23.8167 8.81563 18 20.4469 18H41.0432C42.3763 18 43.0429 18.6667 43.0429 20V26.05C43.0429 27.35 42.3763 28 41.0432 28H20.4469C15.4811 28 12.9982 30.4833 12.9982 35.45V75.55C12.9982 80.5167 15.4811 83 20.4469 83h9.9982C35.4442 83 37.9604 80.5 37.9938 75.5V62.55C38.0271 61.2167 37.3772 60.55 36.0441 60.55H29.9952C28.6621 60.55 27.9955 59.8833 27.9955 58.55v-6C27.9955 51.1833 28.6621 50.5167 29.9952 50.55L45.9923 50.5C47.3254 50.5 47.992 51.15 47.992 52.45L47.942 75.5C47.942 87.1667 42.1097 93 30.4451 93H20.4469z" fill="#fff"/><path d="M75.4371 93C63.8058 93 57.9902 87.1833 57.9902 75.55V20C57.9902 18.6667 58.6567 18 59.9898 18H65.9888C67.3218 18 67.9884 18.6667 67.9884 20V75.55C67.9884 80.5167 70.4713 83 75.4371 83H85.4353C90.4344 83 92.9506 80.5 92.9839 75.5V20C92.9839 18.6667 93.6505 18 94.9836 18H100.983C102.316 18 102.982 18.6667 102.982 20L102.932 75.5C102.932 87.1667 97.0999 93 85.4353 93H75.4371z" fill="#fff"/><path d="M112.98 20C112.98 18.6667 113.647 18 114.98 18H120.979C122.312 18 122.979 18.6667 122.979 20V91C122.979 92.3333 122.312 93 120.979 93H114.98C113.647 93 112.98 92.3333 112.98 91V20z" fill="#fff"/><path d="M160.422 18C172.086 18 177.919 23.8333 177.919 35.5L177.969 91C177.969 92.3333 177.302 93 175.969 93H169.97C168.637 93 167.971 92.3333 167.971 91V35.5C167.937 30.5 165.421 28 160.422 28H150.424C145.458 28 142.975 30.4833 142.975 35.45v55.5C142.975 92.3167 142.308 93 140.975 93H134.976C133.643 93 132.977 92.3167 132.977 90.95V35.45C132.977 23.8167 138.792 18 150.424 18H160.422z" fill="#fff"/><path d="M205.414 93C193.783 93 187.967 87.1833 187.967 75.55V35.45C187.967 23.8167 193.783 18 205.414 18H225.96C227.293 18 227.96 18.6667 227.96 20V26.05C227.96 27.35 227.293 28 225.96 28H205.414C200.448 28 197.965 30.4833 197.965 35.45V48.5C197.965 49.8333 198.632 50.5 199.965 50.5H220.911C222.244 50.5 222.911 51.1667 222.911 52.5v6C222.911 59.8333 222.244 60.5 220.911 60.5H199.965C198.632 60.4667 197.965 61.1333 197.965 62.5V75.55C197.965 80.5167 200.448 83 205.414 83H225.96C227.293 83 227.96 83.6667 227.96 85V91.15C227.96 92.3833 227.293 93 225.96 93H205.414z" fill="#fff"/><path d="M239.958 93C238.625 93 237.958 92.3333 237.958 91V35.5C237.958 23.8333 243.79 18 255.455 18H265.453C277.118 18 282.967 23.8333 283 35.5V91C282.967 92.3333 282.267 93 280.9 93H274.951C273.618 93 272.952 92.3333 272.952 91V72.5C272.952 71.1667 272.285 70.5 270.952 70.5H250.056C248.656 70.5 247.94 71.1667 247.906 72.5V91C247.94 92.3333 247.323 93 246.057 93H239.958zM247.956 58.5C247.956 59.8333 248.656 60.5333 250.056 60.6H270.952C272.285 60.5333 272.952 59.8667 272.952 58.6V35.5c0-5-2.5-7.5-7.499000000000024-7.5H255.455C250.456 28 247.956 30.5 247.956 35.5v23z" fill="#fff"/><path d="M30.86 223.84C30.86 227.573 32.82 229.533 36.74 229.72H79.86C93.9533 229.813 101 222.86 101 208.86L100.86 159.86C101.047 145.953 94.0933 139 80 139H36.6C32.8667 139 31 140.913 31 144.74L30.86 223.84zM129.14 208.72C129.047 241.573 112.62 258 79.86 258H36.46C32.7267 258 30.86 259.867 30.86 263.6L31 315.4C31 319.133 29.1333 321 25.4 321H8.6C4.86667 321 3 319.133 3 315.4V116.6C3 112.867 4.86667 111 8.6 111H80C112.667 111 129.093 127.333 129.28 160L129.14 208.72z" fill="#fff"/><path d="M359.86 321C327.287 321 311 304.713 311 272.14V159.86C311 127.287 327.287 111 359.86 111H417.54C421.273 111 423.14 112.867 423.14 116.6V133.54C423.14 137.18 421.273 139 417.54 139H359.86C345.953 139 339 145.953 339 159.86V272.14C339 286.047 345.953 293 359.86 293h28C401.86 293 408.907 286 409 272V235.74C409.093 232.007 407.273 230.14 403.54 230.14H386.6C382.867 230.14 381 228.273 381 224.54V207.74C381 203.913 382.867 202.047 386.6 202.14L431.4 202C435.133 202 437 203.82 437 207.46L436.86 272C436.86 304.667 420.527 321 387.86 321h-28z" fill="#fff"/><path d="M30.86 223.84C30.86 227.573 32.82 229.533 36.74 229.72H79.86C93.9533 229.813 101 222.86 101 208.86L100.86 159.86C101.047 145.953 94.0933 139 80 139H36.6C32.8667 139 31 140.913 31 144.74L30.86 223.84zM129.14 208.72C129.047 241.573 112.62 258 79.86 258H36.46C32.7267 258 30.86 259.867 30.86 263.6L31 315.4C31 319.133 29.1333 321 25.4 321H8.6C4.86667 321 3 319.133 3 315.4V116.6C3 112.867 4.86667 111 8.6 111H80C112.667 111 129.093 127.333 129.28 160L129.14 208.72z" stroke="#fff" stroke-width="6"/><path d="M359.86 321C327.287 321 311 304.713 311 272.14V159.86C311 127.287 327.287 111 359.86 111H417.54C421.273 111 423.14 112.867 423.14 116.6V133.54C423.14 137.18 421.273 139 417.54 139H359.86C345.953 139 339 145.953 339 159.86V272.14C339 286.047 345.953 293 359.86 293h28C401.86 293 408.907 286 409 272V235.74C409.093 232.007 407.273 230.14 403.54 230.14H386.6C382.867 230.14 381 228.273 381 224.54V207.74C381 203.913 382.867 202.047 386.6 202.14L431.4 202C435.133 202 437 203.82 437 207.46L436.86 272C436.86 304.667 420.527 321 387.86 321h-28z" stroke="#fff" stroke-width="6"/><path d="M370.001.0C382.899.0 394.102 4.31675 402.637 11.873 401.634 11.7257 400.615 11.625 399.57 11.625 388.156 11.625 378.872 20.7506 378.872 31.9687 378.872 36.0588 380.118 39.8621 382.239 43.0571 378.456 41.5381 374.33 40.6875 370.001 40.6875 365.672 40.6875 361.546 41.5381 357.763 43.0571 359.884 39.8641 361.13 36.0607 361.13 31.9687 361.13 20.7506 351.846 11.625 340.432 11.625 339.387 11.625 338.368 11.7257 337.365 11.873 345.9 4.31675 357.103.0 370.001.0z" fill="#fff"/><path d="M422.447 32.1199C419.45 23.4089 414.755 15.8332 408.703 9.796 411.66 7.38575 419.953 1.63912 427.814 5.50637 436.916 9.97812 437.907 18.0343 438 43.5879L422.447 32.1199z" fill="#fff"/><path d="M402.527 87.6932V72.6562C402.527 64.6195 399.47 57.2841 394.468 51.6615 396.105 52.0723 397.806 52.3125 399.57 52.3125 408.106 52.3125 415.449 47.2072 418.609 39.9396 419.691 44.7272 420.268 49.8344 420.268 55.2187 420.268 71.5771 414.841 82.0241 402.527 87.6932z" fill="#fff"/><path d="M396.613 89.8942C389.524 92.0041 380.723 93 370.001 93 359.279 93 350.478 92.0041 343.389 89.8942V72.6562C343.389 60.3841 352.043 50.0902 363.657 47.2808L367.044 50.6094v8.866L350.619 70.2382C349.261 71.1295 348.893 72.9333 349.799 74.2682 350.706 75.6012 352.541 75.9636 353.9 75.0743L370.001 64.5246 386.102 75.0743C386.607 75.4056 387.177 75.5625 387.74 75.5625 388.695 75.5625 389.633 75.1091 390.203 74.2682 391.109 72.9333 390.741 71.1295 389.383 70.2382L372.958 59.4754v-8.866L376.345 47.2808C387.959 50.0902 396.613 60.3841 396.613 72.6562v17.238z" fill="#fff"/><path d="M337.475 87.6932C325.16 82.0241 319.734 71.579 319.734 55.2187 319.734 49.8364 320.311 44.7272 321.393 39.9396 324.553 47.2072 331.896 52.3125 340.432 52.3125 342.196 52.3125 343.897 52.0723 345.534 51.6615 340.532 57.2841 337.475 64.6195 337.475 72.6562V87.6932z" fill="#fff"/><path d="M340.432 17.4375C348.585 17.4375 355.216 23.9552 355.216 31.9687 355.216 39.9823 348.585 46.5 340.432 46.5 332.279 46.5 325.647 39.9823 325.647 31.9687 325.647 23.9552 332.279 17.4375 340.432 17.4375z" fill="#fff"/><path d="M302 43.5879C302.093 18.0343 303.082 9.97812 312.186 5.50637 320.055 1.63719 328.34 7.38188 331.299 9.79406 325.247 15.8333 320.55 23.4089 317.553 32.1199L302 43.5879z" fill="#fff"/><path d="M414.355 31.9687C414.355 39.9823 407.723 46.5 399.57 46.5S384.786 39.9823 384.786 31.9687C384.786 23.9552 391.417 17.4375 399.57 17.4375S414.355 23.9552 414.355 31.9687z" fill="#fff"/><path d="M205.86 321C173.287 321 157 304.713 157 272.14V116.6C157 112.867 158.867 111 162.6 111H179.4C183.133 111 185 112.867 185 116.6V272.14C185 286.047 191.953 293 205.86 293h28C247.86 293 254.907 286 255 272V116.6C255 112.867 256.867 111 260.6 111H277.4C281.133 111 283 112.867 283 116.6L282.86 272C282.86 304.667 266.527 321 233.86 321h-28z" fill="#fff" stroke="#fff" stroke-width="6"/></svg>